<mxfile host="app.diagrams.net" agent="Mozilla/5.0 (Windows NT 10.0; Win64; x64) AppleWebKit/537.36 (KHTML, like Gecko) Chrome/129.0.0.0 Safari/537.36" version="24.7.17">
  <diagram name="Сторінка-1" id="Cry4y_xu6U5x3Do58OrE">
    <mxGraphModel grid="1" page="1" gridSize="10" guides="1" tooltips="1" connect="1" arrows="1" fold="1" pageScale="1" pageWidth="827" pageHeight="1169" math="0" shadow="0">
      <root>
        <mxCell id="0" />
        <mxCell id="1" parent="0" />
        <mxCell id="D_xCX2WVfyktATMnQhFb-1" value="start" style="ellipse;whiteSpace=wrap;html=1;fillColor=#d5e8d4;strokeColor=#82b366;" vertex="1" parent="1">
          <mxGeometry x="30" y="70" width="120" height="80" as="geometry" />
        </mxCell>
        <mxCell id="D_xCX2WVfyktATMnQhFb-2" value="" style="endArrow=classic;html=1;rounded=0;exitX=0.583;exitY=0.988;exitDx=0;exitDy=0;exitPerimeter=0;entryX=0.542;entryY=0.019;entryDx=0;entryDy=0;entryPerimeter=0;" edge="1" parent="1" source="D_xCX2WVfyktATMnQhFb-1" target="D_xCX2WVfyktATMnQhFb-10">
          <mxGeometry width="50" height="50" relative="1" as="geometry">
            <mxPoint x="270" y="190" as="sourcePoint" />
            <mxPoint x="77.76053864168614" y="190" as="targetPoint" />
          </mxGeometry>
        </mxCell>
        <mxCell id="D_xCX2WVfyktATMnQhFb-6" value="" style="endArrow=classic;html=1;rounded=0;" edge="1" parent="1" source="D_xCX2WVfyktATMnQhFb-10" target="D_xCX2WVfyktATMnQhFb-7">
          <mxGeometry width="50" height="50" relative="1" as="geometry">
            <mxPoint x="59.77999999999997" y="250.84000000000003" as="sourcePoint" />
            <mxPoint x="300" y="240" as="targetPoint" />
          </mxGeometry>
        </mxCell>
        <mxCell id="D_xCX2WVfyktATMnQhFb-7" value="invest" style="rounded=0;whiteSpace=wrap;html=1;" vertex="1" parent="1">
          <mxGeometry x="70" y="290" width="50" height="30" as="geometry" />
        </mxCell>
        <mxCell id="D_xCX2WVfyktATMnQhFb-8" value="Enter the annual interest rate:" style="shape=parallelogram;perimeter=parallelogramPerimeter;whiteSpace=wrap;html=1;fixedSize=1;" vertex="1" parent="1">
          <mxGeometry x="15" y="350" width="155" height="80" as="geometry" />
        </mxCell>
        <mxCell id="D_xCX2WVfyktATMnQhFb-9" value="" style="endArrow=classic;html=1;rounded=0;exitX=0.5;exitY=1;exitDx=0;exitDy=0;" edge="1" parent="1" source="D_xCX2WVfyktATMnQhFb-7" target="D_xCX2WVfyktATMnQhFb-8">
          <mxGeometry width="50" height="50" relative="1" as="geometry">
            <mxPoint x="250" y="290" as="sourcePoint" />
            <mxPoint x="300" y="240" as="targetPoint" />
          </mxGeometry>
        </mxCell>
        <mxCell id="D_xCX2WVfyktATMnQhFb-10" value="Enter the investment amount:" style="shape=parallelogram;perimeter=parallelogramPerimeter;whiteSpace=wrap;html=1;fixedSize=1;" vertex="1" parent="1">
          <mxGeometry x="27.5" y="180" width="137.5" height="70" as="geometry" />
        </mxCell>
        <mxCell id="D_xCX2WVfyktATMnQhFb-11" value="" style="endArrow=classic;html=1;rounded=0;" edge="1" parent="1" target="D_xCX2WVfyktATMnQhFb-12">
          <mxGeometry width="50" height="50" relative="1" as="geometry">
            <mxPoint x="93" y="431" as="sourcePoint" />
            <mxPoint x="80" y="480" as="targetPoint" />
          </mxGeometry>
        </mxCell>
        <mxCell id="D_xCX2WVfyktATMnQhFb-12" value="procent" style="rounded=0;whiteSpace=wrap;html=1;" vertex="1" parent="1">
          <mxGeometry x="63.75" y="480" width="57.5" height="40" as="geometry" />
        </mxCell>
        <mxCell id="D_xCX2WVfyktATMnQhFb-13" value="" style="endArrow=classic;html=1;rounded=0;exitX=0.5;exitY=1;exitDx=0;exitDy=0;" edge="1" parent="1" source="D_xCX2WVfyktATMnQhFb-12" target="D_xCX2WVfyktATMnQhFb-14">
          <mxGeometry width="50" height="50" relative="1" as="geometry">
            <mxPoint x="110" y="550" as="sourcePoint" />
            <mxPoint x="80" y="560" as="targetPoint" />
          </mxGeometry>
        </mxCell>
        <mxCell id="D_xCX2WVfyktATMnQhFb-14" value="Enter the amount of interest per year:" style="shape=parallelogram;perimeter=parallelogramPerimeter;whiteSpace=wrap;html=1;fixedSize=1;" vertex="1" parent="1">
          <mxGeometry x="15" y="550" width="150" height="70" as="geometry" />
        </mxCell>
        <mxCell id="D_xCX2WVfyktATMnQhFb-15" value="" style="endArrow=classic;html=1;rounded=0;exitX=0.418;exitY=1.012;exitDx=0;exitDy=0;exitPerimeter=0;" edge="1" parent="1" source="D_xCX2WVfyktATMnQhFb-14" target="D_xCX2WVfyktATMnQhFb-16">
          <mxGeometry width="50" height="50" relative="1" as="geometry">
            <mxPoint x="250" y="580" as="sourcePoint" />
            <mxPoint x="110" y="670" as="targetPoint" />
          </mxGeometry>
        </mxCell>
        <mxCell id="D_xCX2WVfyktATMnQhFb-16" value="procyear" style="rounded=0;whiteSpace=wrap;html=1;" vertex="1" parent="1">
          <mxGeometry x="52.5" y="660" width="50" height="30" as="geometry" />
        </mxCell>
        <mxCell id="D_xCX2WVfyktATMnQhFb-17" value="" style="endArrow=classic;html=1;rounded=0;exitX=0.5;exitY=1;exitDx=0;exitDy=0;" edge="1" parent="1" source="D_xCX2WVfyktATMnQhFb-16" target="D_xCX2WVfyktATMnQhFb-18">
          <mxGeometry width="50" height="50" relative="1" as="geometry">
            <mxPoint x="80" y="740" as="sourcePoint" />
            <mxPoint x="90" y="730" as="targetPoint" />
          </mxGeometry>
        </mxCell>
        <mxCell id="D_xCX2WVfyktATMnQhFb-18" value="Enter the time of investing money (in years):" style="shape=parallelogram;perimeter=parallelogramPerimeter;whiteSpace=wrap;html=1;fixedSize=1;" vertex="1" parent="1">
          <mxGeometry x="2.5" y="730" width="150" height="80" as="geometry" />
        </mxCell>
        <mxCell id="D_xCX2WVfyktATMnQhFb-19" value="" style="endArrow=classic;html=1;rounded=0;exitX=0.5;exitY=1;exitDx=0;exitDy=0;" edge="1" parent="1" source="D_xCX2WVfyktATMnQhFb-18" target="D_xCX2WVfyktATMnQhFb-20">
          <mxGeometry width="50" height="50" relative="1" as="geometry">
            <mxPoint x="80" y="850" as="sourcePoint" />
            <mxPoint x="110" y="860" as="targetPoint" />
          </mxGeometry>
        </mxCell>
        <mxCell id="D_xCX2WVfyktATMnQhFb-20" value="time" style="rounded=0;whiteSpace=wrap;html=1;" vertex="1" parent="1">
          <mxGeometry x="57.5" y="860" width="40" height="20" as="geometry" />
        </mxCell>
        <mxCell id="D_xCX2WVfyktATMnQhFb-21" value="" style="endArrow=classic;html=1;rounded=0;exitX=0.5;exitY=1;exitDx=0;exitDy=0;" edge="1" parent="1" source="D_xCX2WVfyktATMnQhFb-20" target="D_xCX2WVfyktATMnQhFb-22">
          <mxGeometry width="50" height="50" relative="1" as="geometry">
            <mxPoint x="90" y="950" as="sourcePoint" />
            <mxPoint x="100" y="930" as="targetPoint" />
          </mxGeometry>
        </mxCell>
        <mxCell id="D_xCX2WVfyktATMnQhFb-22" value="procent /= 100.0;" style="rounded=0;whiteSpace=wrap;html=1;" vertex="1" parent="1">
          <mxGeometry x="25" y="920" width="105" height="30" as="geometry" />
        </mxCell>
        <mxCell id="D_xCX2WVfyktATMnQhFb-23" value="" style="endArrow=classic;html=1;rounded=0;exitX=0.5;exitY=1;exitDx=0;exitDy=0;entryX=0.189;entryY=0.05;entryDx=0;entryDy=0;entryPerimeter=0;" edge="1" parent="1" source="D_xCX2WVfyktATMnQhFb-22" target="D_xCX2WVfyktATMnQhFb-24">
          <mxGeometry width="50" height="50" relative="1" as="geometry">
            <mxPoint x="100" y="990" as="sourcePoint" />
            <mxPoint x="90" y="990" as="targetPoint" />
          </mxGeometry>
        </mxCell>
        <mxCell id="D_xCX2WVfyktATMnQhFb-24" value="a = invest * pow(1 + procent/procyear, procyear*time);" style="rounded=0;whiteSpace=wrap;html=1;" vertex="1" parent="1">
          <mxGeometry x="20" y="1010" width="300" height="60" as="geometry" />
        </mxCell>
        <mxCell id="D_xCX2WVfyktATMnQhFb-26" value="Your investment result:" style="rounded=0;whiteSpace=wrap;html=1;" vertex="1" parent="1">
          <mxGeometry x="530" y="90" width="120" height="60" as="geometry" />
        </mxCell>
        <mxCell id="D_xCX2WVfyktATMnQhFb-27" value="" style="endArrow=classic;html=1;rounded=0;entryX=0;entryY=0.5;entryDx=0;entryDy=0;" edge="1" parent="1" source="D_xCX2WVfyktATMnQhFb-24" target="D_xCX2WVfyktATMnQhFb-26">
          <mxGeometry width="50" height="50" relative="1" as="geometry">
            <mxPoint x="320" y="1090" as="sourcePoint" />
            <mxPoint x="390" y="110" as="targetPoint" />
            <Array as="points">
              <mxPoint x="390" y="1040" />
              <mxPoint x="390" y="320" />
              <mxPoint x="390" y="190" />
              <mxPoint x="390" y="120" />
            </Array>
          </mxGeometry>
        </mxCell>
        <mxCell id="D_xCX2WVfyktATMnQhFb-28" value="" style="endArrow=classic;html=1;rounded=0;exitX=0.539;exitY=1.017;exitDx=0;exitDy=0;exitPerimeter=0;entryX=0.544;entryY=0.006;entryDx=0;entryDy=0;entryPerimeter=0;" edge="1" parent="1" source="D_xCX2WVfyktATMnQhFb-26" target="D_xCX2WVfyktATMnQhFb-30">
          <mxGeometry width="50" height="50" relative="1" as="geometry">
            <mxPoint x="390" y="240" as="sourcePoint" />
            <mxPoint x="592.0353725717598" y="190" as="targetPoint" />
          </mxGeometry>
        </mxCell>
        <mxCell id="D_xCX2WVfyktATMnQhFb-30" value="Invested amount:" style="rounded=0;whiteSpace=wrap;html=1;" vertex="1" parent="1">
          <mxGeometry x="530" y="190" width="120" height="60" as="geometry" />
        </mxCell>
        <mxCell id="D_xCX2WVfyktATMnQhFb-32" value="" style="endArrow=classic;html=1;rounded=0;exitX=0.5;exitY=1;exitDx=0;exitDy=0;" edge="1" parent="1" source="D_xCX2WVfyktATMnQhFb-30" target="D_xCX2WVfyktATMnQhFb-33">
          <mxGeometry width="50" height="50" relative="1" as="geometry">
            <mxPoint x="250" y="420" as="sourcePoint" />
            <mxPoint x="300" y="370" as="targetPoint" />
          </mxGeometry>
        </mxCell>
        <mxCell id="D_xCX2WVfyktATMnQhFb-34" style="edgeStyle=orthogonalEdgeStyle;rounded=0;orthogonalLoop=1;jettySize=auto;html=1;" edge="1" parent="1" source="D_xCX2WVfyktATMnQhFb-33" target="D_xCX2WVfyktATMnQhFb-35">
          <mxGeometry relative="1" as="geometry">
            <mxPoint x="590" y="450" as="targetPoint" />
          </mxGeometry>
        </mxCell>
        <mxCell id="D_xCX2WVfyktATMnQhFb-33" value="Total amount of investment:" style="rounded=0;whiteSpace=wrap;html=1;" vertex="1" parent="1">
          <mxGeometry x="530" y="330" width="120" height="60" as="geometry" />
        </mxCell>
        <mxCell id="D_xCX2WVfyktATMnQhFb-38" style="edgeStyle=orthogonalEdgeStyle;rounded=0;orthogonalLoop=1;jettySize=auto;html=1;entryX=0.5;entryY=0;entryDx=0;entryDy=0;" edge="1" parent="1" source="D_xCX2WVfyktATMnQhFb-35" target="D_xCX2WVfyktATMnQhFb-37">
          <mxGeometry relative="1" as="geometry" />
        </mxCell>
        <mxCell id="D_xCX2WVfyktATMnQhFb-35" value="Amount of earnings:" style="rounded=0;whiteSpace=wrap;html=1;" vertex="1" parent="1">
          <mxGeometry x="530" y="420" width="120" height="60" as="geometry" />
        </mxCell>
        <mxCell id="D_xCX2WVfyktATMnQhFb-37" value="Finish" style="ellipse;whiteSpace=wrap;html=1;fillColor=#f8cecc;strokeColor=#b85450;" vertex="1" parent="1">
          <mxGeometry x="530" y="510" width="120" height="80" as="geometry" />
        </mxCell>
      </root>
    </mxGraphModel>
  </diagram>
</mxfile>
